<svg width="184" height="34" viewBox="0 0 184 34" fill="none" xmlns="http://www.w3.org/2000/svg">
<path d="M16.1606 2.99561C8.4882 2.99561 2.15625 9.31873 2.15625 17C2.15625 24.6724 8.4882 30.9956 16.1606 30.9956C16.7974 31.0348 17.4355 30.9432 18.0355 30.7264C18.6356 30.5097 19.1848 30.1725 19.6495 29.7354C20.1143 29.2984 20.4847 28.7708 20.7379 28.1852C20.9911 27.5996 21.1217 26.9684 21.1217 26.3304C21.1217 25.6925 20.9911 25.0612 20.7379 24.4757C20.4847 23.8901 20.1143 23.3625 19.6495 22.9255C19.1848 22.4884 18.6356 22.1511 18.0355 21.9344C17.4355 21.7176 16.7974 21.626 16.1606 21.6652C15.5442 21.6747 14.9322 21.5604 14.3608 21.3288C13.7894 21.0973 13.2704 20.7534 12.8344 20.3174C12.3985 19.8815 12.0546 19.3624 11.823 18.7911C11.5915 18.2197 11.4771 17.6076 11.4866 16.9912C11.4866 14.3631 13.5238 12.326 16.1606 12.326C18.7975 12.326 20.8346 14.3631 20.8346 17C20.7955 17.6368 20.887 18.2748 21.1038 18.8748C21.3205 19.4749 21.6578 20.0242 22.0949 20.4889C22.5319 20.9537 23.0595 21.3241 23.645 21.5772C24.2306 21.8304 24.8619 21.961 25.4999 21.961C26.1379 21.961 26.769 21.8304 27.3546 21.5772C27.9402 21.3241 28.4678 20.9537 28.9048 20.4889C29.3419 20.0242 29.6792 19.4749 29.8959 18.8748C30.1126 18.2748 30.2042 17.6368 30.165 17C30.165 9.32755 23.8331 2.99561 16.1606 2.99561Z" fill="#039BE5"/>
<path d="M34.8302 2.99564C34.1935 2.95647 33.5554 3.04804 32.9553 3.26477C32.3553 3.4815 31.806 3.8188 31.3412 4.25585C30.8764 4.69289 30.5061 5.22045 30.253 5.80604C29.9998 6.39163 29.8692 7.02286 29.8692 7.66083C29.8692 8.2988 29.9998 8.93002 30.253 9.51561C30.5061 10.1012 30.8764 10.6288 31.3412 11.0658C31.806 11.5029 32.3553 11.8402 32.9553 12.0569C33.5554 12.2736 34.1935 12.3652 34.8302 12.326C37.4671 12.326 39.5042 14.3632 39.5042 17C39.5042 19.6281 37.4671 21.6652 34.8302 21.6652C34.2138 21.6747 33.6017 21.5604 33.0303 21.3289C32.4589 21.0973 31.9398 20.7534 31.5039 20.3175C31.068 19.8815 30.724 19.3625 30.4925 18.7911C30.261 18.2197 30.1467 17.6076 30.1562 16.9912C30.1954 16.3544 30.1037 15.7164 29.887 15.1164C29.6702 14.5163 29.3331 13.967 28.896 13.5023C28.459 13.0375 27.9314 12.6672 27.3458 12.414C26.7602 12.1609 26.1289 12.0302 25.491 12.0302C24.853 12.0302 24.2218 12.1609 23.6362 12.414C23.0507 12.6672 22.5231 13.0375 22.086 13.5023C21.649 13.967 21.3117 14.5163 21.095 15.1164C20.8782 15.7164 20.7867 16.3544 20.8258 16.9912C20.8258 24.6725 27.1578 30.9957 34.8302 30.9957C42.5027 30.9957 48.8346 24.6725 48.8346 17C48.8346 9.32758 42.5115 2.99564 34.8302 2.99564Z" fill="#52B25C"/>
<path d="M63.884 26V9.824H66.14V26H63.884ZM58.22 11.408V9.344H71.78V11.408H58.22ZM71.5293 26V14.6H73.6893V26H71.5293ZM73.6893 19.496L72.8733 19.136C72.8733 17.68 73.2093 16.52 73.8813 15.656C74.5533 14.792 75.5213 14.36 76.7853 14.36C77.3613 14.36 77.8813 14.464 78.3453 14.672C78.8093 14.864 79.2413 15.192 79.6413 15.656L78.2253 17.12C77.9853 16.864 77.7213 16.68 77.4333 16.568C77.1453 16.456 76.8093 16.4 76.4253 16.4C75.6253 16.4 74.9693 16.656 74.4573 17.168C73.9453 17.68 73.6893 18.456 73.6893 19.496ZM85.7461 26.24C84.8181 26.24 83.9781 26.032 83.2261 25.616C82.4901 25.184 81.9141 24.592 81.4981 23.84C81.0821 23.088 80.8741 22.216 80.8741 21.224V14.6H83.0341V21.128C83.0341 21.752 83.1381 22.296 83.3461 22.76C83.5701 23.208 83.8901 23.552 84.3061 23.792C84.7221 24.032 85.2101 24.152 85.7701 24.152C86.6181 24.152 87.2821 23.888 87.7621 23.36C88.2421 22.816 88.4821 22.072 88.4821 21.128V14.6H90.6421V21.224C90.6421 22.216 90.4341 23.088 90.0181 23.84C89.6021 24.592 89.0261 25.184 88.2901 25.616C87.5701 26.032 86.7221 26.24 85.7461 26.24ZM97.1611 26.24C96.5211 26.24 95.9131 26.16 95.3371 26C94.7771 25.824 94.2571 25.584 93.7771 25.28C93.2971 24.96 92.8811 24.584 92.5291 24.152L93.9211 22.76C94.3371 23.272 94.8171 23.656 95.3611 23.912C95.9051 24.152 96.5131 24.272 97.1851 24.272C97.8571 24.272 98.3771 24.16 98.7451 23.936C99.1131 23.696 99.2971 23.368 99.2971 22.952C99.2971 22.536 99.1451 22.216 98.8411 21.992C98.5531 21.752 98.1771 21.56 97.7131 21.416C97.2491 21.256 96.7531 21.104 96.2251 20.96C95.7131 20.8 95.2251 20.6 94.7611 20.36C94.2971 20.12 93.9131 19.792 93.6091 19.376C93.3211 18.96 93.1771 18.408 93.1771 17.72C93.1771 17.032 93.3451 16.44 93.6811 15.944C94.0171 15.432 94.4811 15.04 95.0731 14.768C95.6811 14.496 96.4091 14.36 97.2571 14.36C98.1531 14.36 98.9451 14.52 99.6331 14.84C100.337 15.144 100.913 15.608 101.361 16.232L99.9691 17.624C99.6491 17.208 99.2491 16.888 98.7691 16.664C98.3051 16.44 97.7771 16.328 97.1851 16.328C96.5611 16.328 96.0811 16.44 95.7451 16.664C95.4251 16.872 95.2651 17.168 95.2651 17.552C95.2651 17.936 95.4091 18.232 95.6971 18.44C95.9851 18.648 96.3611 18.824 96.8251 18.968C97.3051 19.112 97.8011 19.264 98.3131 19.424C98.8251 19.568 99.3131 19.768 99.7771 20.024C100.241 20.28 100.617 20.624 100.905 21.056C101.209 21.488 101.361 22.056 101.361 22.76C101.361 23.832 100.977 24.68 100.209 25.304C99.4571 25.928 98.4411 26.24 97.1611 26.24ZM105.531 26V9.824H107.691V26H105.531ZM102.723 16.568V14.6H110.499V16.568H102.723ZM120.583 26.24C119.399 26.24 118.295 26.024 117.271 25.592C116.247 25.144 115.351 24.528 114.583 23.744C113.815 22.944 113.215 22.024 112.783 20.984C112.367 19.944 112.159 18.832 112.159 17.648C112.159 16.448 112.367 15.336 112.783 14.312C113.215 13.272 113.807 12.36 114.559 11.576C115.327 10.792 116.215 10.184 117.223 9.752C118.247 9.32 119.351 9.104 120.535 9.104C121.719 9.104 122.815 9.32 123.823 9.752C124.847 10.184 125.743 10.792 126.511 11.576C127.279 12.36 127.879 13.272 128.311 14.312C128.743 15.352 128.959 16.472 128.959 17.672C128.959 18.856 128.743 19.968 128.311 21.008C127.879 22.048 127.279 22.96 126.511 23.744C125.759 24.528 124.871 25.144 123.847 25.592C122.839 26.024 121.751 26.24 120.583 26.24ZM120.535 24.08C121.735 24.08 122.783 23.808 123.679 23.264C124.591 22.704 125.311 21.944 125.839 20.984C126.367 20.008 126.631 18.896 126.631 17.648C126.631 16.72 126.479 15.872 126.175 15.104C125.871 14.32 125.447 13.64 124.903 13.064C124.359 12.488 123.719 12.048 122.983 11.744C122.247 11.424 121.431 11.264 120.535 11.264C119.351 11.264 118.303 11.536 117.391 12.08C116.495 12.624 115.783 13.376 115.255 14.336C114.743 15.296 114.487 16.4 114.487 17.648C114.487 18.576 114.631 19.44 114.919 20.24C115.223 21.024 115.639 21.704 116.167 22.28C116.711 22.84 117.351 23.28 118.087 23.6C118.839 23.92 119.655 24.08 120.535 24.08ZM131.67 26V14.6H133.83V26H131.67ZM133.83 19.496L133.014 19.136C133.014 17.68 133.35 16.52 134.022 15.656C134.694 14.792 135.662 14.36 136.926 14.36C137.502 14.36 138.022 14.464 138.486 14.672C138.95 14.864 139.382 15.192 139.782 15.656L138.366 17.12C138.126 16.864 137.862 16.68 137.574 16.568C137.286 16.456 136.95 16.4 136.566 16.4C135.766 16.4 135.11 16.656 134.598 17.168C134.086 17.68 133.83 18.456 133.83 19.496ZM145.776 26.24C144.736 26.24 143.792 25.984 142.944 25.472C142.096 24.944 141.424 24.232 140.928 23.336C140.448 22.44 140.208 21.432 140.208 20.312C140.208 19.192 140.448 18.184 140.928 17.288C141.424 16.392 142.088 15.68 142.92 15.152C143.768 14.624 144.72 14.36 145.776 14.36C146.64 14.36 147.408 14.544 148.08 14.912C148.768 15.264 149.32 15.76 149.736 16.4C150.152 17.024 150.384 17.752 150.432 18.584V22.016C150.384 22.832 150.152 23.56 149.736 24.2C149.336 24.84 148.792 25.344 148.104 25.712C147.432 26.064 146.656 26.24 145.776 26.24ZM146.136 24.2C147.208 24.2 148.072 23.84 148.728 23.12C149.384 22.384 149.712 21.448 149.712 20.312C149.712 19.528 149.56 18.848 149.256 18.272C148.968 17.68 148.552 17.224 148.008 16.904C147.464 16.568 146.832 16.4 146.112 16.4C145.392 16.4 144.752 16.568 144.192 16.904C143.648 17.24 143.216 17.704 142.896 18.296C142.592 18.872 142.44 19.536 142.44 20.288C142.44 21.056 142.592 21.736 142.896 22.328C143.216 22.904 143.656 23.36 144.216 23.696C144.776 24.032 145.416 24.2 146.136 24.2ZM149.568 26V22.928L149.976 20.144L149.568 17.384V14.6H151.752V26H149.568ZM160.105 26.24C158.985 26.24 157.969 25.976 157.057 25.448C156.161 24.92 155.449 24.208 154.921 23.312C154.409 22.4 154.153 21.392 154.153 20.288C154.153 19.168 154.409 18.16 154.921 17.264C155.449 16.368 156.161 15.664 157.057 15.152C157.969 14.624 158.985 14.36 160.105 14.36C160.985 14.36 161.801 14.528 162.553 14.864C163.305 15.184 163.953 15.656 164.497 16.28L163.057 17.72C162.705 17.304 162.273 16.992 161.761 16.784C161.265 16.56 160.713 16.448 160.105 16.448C159.385 16.448 158.745 16.616 158.185 16.952C157.625 17.272 157.185 17.72 156.865 18.296C156.545 18.872 156.385 19.536 156.385 20.288C156.385 21.04 156.545 21.704 156.865 22.28C157.185 22.856 157.625 23.312 158.185 23.648C158.745 23.984 159.385 24.152 160.105 24.152C160.713 24.152 161.265 24.048 161.761 23.84C162.273 23.616 162.713 23.296 163.081 22.88L164.497 24.32C163.969 24.928 163.321 25.4 162.553 25.736C161.801 26.072 160.985 26.24 160.105 26.24ZM166.639 26V8.864H168.799V26H166.639ZM177.239 26.24C176.103 26.24 175.079 25.984 174.167 25.472C173.255 24.944 172.535 24.232 172.007 23.336C171.479 22.44 171.215 21.424 171.215 20.288C171.215 19.168 171.471 18.16 171.983 17.264C172.511 16.368 173.215 15.664 174.095 15.152C174.991 14.624 175.991 14.36 177.095 14.36C178.151 14.36 179.079 14.6 179.879 15.08C180.695 15.56 181.327 16.224 181.775 17.072C182.239 17.92 182.471 18.88 182.471 19.952C182.471 20.112 182.463 20.288 182.447 20.48C182.431 20.656 182.399 20.864 182.351 21.104H172.727V19.304H181.199L180.407 20C180.407 19.232 180.271 18.584 179.999 18.056C179.727 17.512 179.343 17.096 178.847 16.808C178.351 16.504 177.751 16.352 177.047 16.352C176.311 16.352 175.663 16.512 175.103 16.832C174.543 17.152 174.111 17.6 173.807 18.176C173.503 18.752 173.351 19.432 173.351 20.216C173.351 21.016 173.511 21.72 173.831 22.328C174.151 22.92 174.607 23.384 175.199 23.72C175.791 24.04 176.471 24.2 177.239 24.2C177.879 24.2 178.463 24.088 178.991 23.864C179.535 23.64 179.999 23.304 180.383 22.856L181.775 24.272C181.231 24.912 180.559 25.4 179.759 25.736C178.975 26.072 178.135 26.24 177.239 26.24Z" fill="white"/>
</svg>
