<svg width="183" height="34" viewBox="0 0 183 34" fill="none" xmlns="http://www.w3.org/2000/svg">
<path d="M15.6606 2.99561C7.9882 2.99561 1.65625 9.31873 1.65625 17C1.65625 24.6724 7.9882 30.9956 15.6606 30.9956C16.2974 31.0348 16.9355 30.9432 17.5355 30.7264C18.1356 30.5097 18.6848 30.1725 19.1495 29.7354C19.6143 29.2984 19.9847 28.7708 20.2379 28.1852C20.4911 27.5996 20.6217 26.9684 20.6217 26.3304C20.6217 25.6925 20.4911 25.0612 20.2379 24.4757C19.9847 23.8901 19.6143 23.3625 19.1495 22.9255C18.6848 22.4884 18.1356 22.1511 17.5355 21.9344C16.9355 21.7176 16.2974 21.626 15.6606 21.6652C15.0442 21.6747 14.4322 21.5604 13.8608 21.3288C13.2894 21.0973 12.7704 20.7534 12.3344 20.3174C11.8985 19.8815 11.5546 19.3624 11.323 18.7911C11.0915 18.2197 10.9771 17.6076 10.9866 16.9912C10.9866 14.3631 13.0238 12.326 15.6606 12.326C18.2975 12.326 20.3346 14.3631 20.3346 17C20.2955 17.6368 20.387 18.2748 20.6038 18.8748C20.8205 19.4749 21.1578 20.0242 21.5949 20.4889C22.0319 20.9537 22.5595 21.3241 23.145 21.5772C23.7306 21.8304 24.3619 21.961 24.9999 21.961C25.6379 21.961 26.269 21.8304 26.8546 21.5772C27.4402 21.3241 27.9678 20.9537 28.4048 20.4889C28.8419 20.0242 29.1792 19.4749 29.3959 18.8748C29.6126 18.2748 29.7042 17.6368 29.665 17C29.665 9.32755 23.3331 2.99561 15.6606 2.99561Z" fill="#039BE5"/>
<path d="M34.3302 2.99564C33.6935 2.95647 33.0554 3.04804 32.4553 3.26477C31.8553 3.4815 31.306 3.8188 30.8412 4.25585C30.3764 4.69289 30.0061 5.22045 29.753 5.80604C29.4998 6.39163 29.3692 7.02286 29.3692 7.66083C29.3692 8.2988 29.4998 8.93002 29.753 9.51561C30.0061 10.1012 30.3764 10.6288 30.8412 11.0658C31.306 11.5029 31.8553 11.8402 32.4553 12.0569C33.0554 12.2736 33.6935 12.3652 34.3302 12.326C36.9671 12.326 39.0042 14.3632 39.0042 17C39.0042 19.6281 36.9671 21.6652 34.3302 21.6652C33.7138 21.6747 33.1017 21.5604 32.5303 21.3289C31.9589 21.0973 31.4398 20.7534 31.0039 20.3175C30.568 19.8815 30.224 19.3625 29.9925 18.7911C29.761 18.2197 29.6467 17.6076 29.6562 16.9912C29.6954 16.3544 29.6037 15.7164 29.387 15.1164C29.1702 14.5163 28.8331 13.967 28.396 13.5023C27.959 13.0375 27.4314 12.6672 26.8458 12.414C26.2602 12.1609 25.6289 12.0302 24.991 12.0302C24.353 12.0302 23.7218 12.1609 23.1362 12.414C22.5507 12.6672 22.0231 13.0375 21.586 13.5023C21.149 13.967 20.8117 14.5163 20.595 15.1164C20.3782 15.7164 20.2867 16.3544 20.3258 16.9912C20.3258 24.6725 26.6578 30.9957 34.3302 30.9957C42.0027 30.9957 48.3346 24.6725 48.3346 17C48.3346 9.32758 42.0115 2.99564 34.3302 2.99564Z" fill="#52B25C"/>
<path d="M63.384 26V9.824H65.64V26H63.384ZM57.72 11.408V9.344H71.28V11.408H57.72ZM71.0293 26V14.6H73.1893V26H71.0293ZM73.1893 19.496L72.3733 19.136C72.3733 17.68 72.7093 16.52 73.3813 15.656C74.0533 14.792 75.0213 14.36 76.2853 14.36C76.8613 14.36 77.3813 14.464 77.8453 14.672C78.3093 14.864 78.7413 15.192 79.1413 15.656L77.7253 17.12C77.4853 16.864 77.2213 16.68 76.9333 16.568C76.6453 16.456 76.3093 16.4 75.9253 16.4C75.1253 16.4 74.4693 16.656 73.9573 17.168C73.4453 17.68 73.1893 18.456 73.1893 19.496ZM85.2461 26.24C84.3181 26.24 83.4781 26.032 82.7261 25.616C81.9901 25.184 81.4141 24.592 80.9981 23.84C80.5821 23.088 80.3741 22.216 80.3741 21.224V14.6H82.5341V21.128C82.5341 21.752 82.6381 22.296 82.8461 22.76C83.0701 23.208 83.3901 23.552 83.8061 23.792C84.2221 24.032 84.7101 24.152 85.2701 24.152C86.1181 24.152 86.7821 23.888 87.2621 23.36C87.7421 22.816 87.9821 22.072 87.9821 21.128V14.6H90.1421V21.224C90.1421 22.216 89.9341 23.088 89.5181 23.84C89.1021 24.592 88.5261 25.184 87.7901 25.616C87.0701 26.032 86.2221 26.24 85.2461 26.24ZM96.6611 26.24C96.0211 26.24 95.4131 26.16 94.8371 26C94.2771 25.824 93.7571 25.584 93.2771 25.28C92.7971 24.96 92.3811 24.584 92.0291 24.152L93.4211 22.76C93.8371 23.272 94.3171 23.656 94.8611 23.912C95.4051 24.152 96.0131 24.272 96.6851 24.272C97.3571 24.272 97.8771 24.16 98.2451 23.936C98.6131 23.696 98.7971 23.368 98.7971 22.952C98.7971 22.536 98.6451 22.216 98.3411 21.992C98.0531 21.752 97.6771 21.56 97.2131 21.416C96.7491 21.256 96.2531 21.104 95.7251 20.96C95.2131 20.8 94.7251 20.6 94.2611 20.36C93.7971 20.12 93.4131 19.792 93.1091 19.376C92.8211 18.96 92.6771 18.408 92.6771 17.72C92.6771 17.032 92.8451 16.44 93.1811 15.944C93.5171 15.432 93.9811 15.04 94.5731 14.768C95.1811 14.496 95.9091 14.36 96.7571 14.36C97.6531 14.36 98.4451 14.52 99.1331 14.84C99.8371 15.144 100.413 15.608 100.861 16.232L99.4691 17.624C99.1491 17.208 98.7491 16.888 98.2691 16.664C97.8051 16.44 97.2771 16.328 96.6851 16.328C96.0611 16.328 95.5811 16.44 95.2451 16.664C94.9251 16.872 94.7651 17.168 94.7651 17.552C94.7651 17.936 94.9091 18.232 95.1971 18.44C95.4851 18.648 95.8611 18.824 96.3251 18.968C96.8051 19.112 97.3011 19.264 97.8131 19.424C98.3251 19.568 98.8131 19.768 99.2771 20.024C99.7411 20.28 100.117 20.624 100.405 21.056C100.709 21.488 100.861 22.056 100.861 22.76C100.861 23.832 100.477 24.68 99.7091 25.304C98.9571 25.928 97.9411 26.24 96.6611 26.24ZM105.031 26V9.824H107.191V26H105.031ZM102.223 16.568V14.6H109.999V16.568H102.223ZM120.083 26.24C118.899 26.24 117.795 26.024 116.771 25.592C115.747 25.144 114.851 24.528 114.083 23.744C113.315 22.944 112.715 22.024 112.283 20.984C111.867 19.944 111.659 18.832 111.659 17.648C111.659 16.448 111.867 15.336 112.283 14.312C112.715 13.272 113.307 12.36 114.059 11.576C114.827 10.792 115.715 10.184 116.723 9.752C117.747 9.32 118.851 9.104 120.035 9.104C121.219 9.104 122.315 9.32 123.323 9.752C124.347 10.184 125.243 10.792 126.011 11.576C126.779 12.36 127.379 13.272 127.811 14.312C128.243 15.352 128.459 16.472 128.459 17.672C128.459 18.856 128.243 19.968 127.811 21.008C127.379 22.048 126.779 22.96 126.011 23.744C125.259 24.528 124.371 25.144 123.347 25.592C122.339 26.024 121.251 26.24 120.083 26.24ZM120.035 24.08C121.235 24.08 122.283 23.808 123.179 23.264C124.091 22.704 124.811 21.944 125.339 20.984C125.867 20.008 126.131 18.896 126.131 17.648C126.131 16.72 125.979 15.872 125.675 15.104C125.371 14.32 124.947 13.64 124.403 13.064C123.859 12.488 123.219 12.048 122.483 11.744C121.747 11.424 120.931 11.264 120.035 11.264C118.851 11.264 117.803 11.536 116.891 12.08C115.995 12.624 115.283 13.376 114.755 14.336C114.243 15.296 113.987 16.4 113.987 17.648C113.987 18.576 114.131 19.44 114.419 20.24C114.723 21.024 115.139 21.704 115.667 22.28C116.211 22.84 116.851 23.28 117.587 23.6C118.339 23.92 119.155 24.08 120.035 24.08ZM131.17 26V14.6H133.33V26H131.17ZM133.33 19.496L132.514 19.136C132.514 17.68 132.85 16.52 133.522 15.656C134.194 14.792 135.162 14.36 136.426 14.36C137.002 14.36 137.522 14.464 137.986 14.672C138.45 14.864 138.882 15.192 139.282 15.656L137.866 17.12C137.626 16.864 137.362 16.68 137.074 16.568C136.786 16.456 136.45 16.4 136.066 16.4C135.266 16.4 134.61 16.656 134.098 17.168C133.586 17.68 133.33 18.456 133.33 19.496ZM145.276 26.24C144.236 26.24 143.292 25.984 142.444 25.472C141.596 24.944 140.924 24.232 140.428 23.336C139.948 22.44 139.708 21.432 139.708 20.312C139.708 19.192 139.948 18.184 140.428 17.288C140.924 16.392 141.588 15.68 142.42 15.152C143.268 14.624 144.22 14.36 145.276 14.36C146.14 14.36 146.908 14.544 147.58 14.912C148.268 15.264 148.82 15.76 149.236 16.4C149.652 17.024 149.884 17.752 149.932 18.584V22.016C149.884 22.832 149.652 23.56 149.236 24.2C148.836 24.84 148.292 25.344 147.604 25.712C146.932 26.064 146.156 26.24 145.276 26.24ZM145.636 24.2C146.708 24.2 147.572 23.84 148.228 23.12C148.884 22.384 149.212 21.448 149.212 20.312C149.212 19.528 149.06 18.848 148.756 18.272C148.468 17.68 148.052 17.224 147.508 16.904C146.964 16.568 146.332 16.4 145.612 16.4C144.892 16.4 144.252 16.568 143.692 16.904C143.148 17.24 142.716 17.704 142.396 18.296C142.092 18.872 141.94 19.536 141.94 20.288C141.94 21.056 142.092 21.736 142.396 22.328C142.716 22.904 143.156 23.36 143.716 23.696C144.276 24.032 144.916 24.2 145.636 24.2ZM149.068 26V22.928L149.476 20.144L149.068 17.384V14.6H151.252V26H149.068ZM159.605 26.24C158.485 26.24 157.469 25.976 156.557 25.448C155.661 24.92 154.949 24.208 154.421 23.312C153.909 22.4 153.653 21.392 153.653 20.288C153.653 19.168 153.909 18.16 154.421 17.264C154.949 16.368 155.661 15.664 156.557 15.152C157.469 14.624 158.485 14.36 159.605 14.36C160.485 14.36 161.301 14.528 162.053 14.864C162.805 15.184 163.453 15.656 163.997 16.28L162.557 17.72C162.205 17.304 161.773 16.992 161.261 16.784C160.765 16.56 160.213 16.448 159.605 16.448C158.885 16.448 158.245 16.616 157.685 16.952C157.125 17.272 156.685 17.72 156.365 18.296C156.045 18.872 155.885 19.536 155.885 20.288C155.885 21.04 156.045 21.704 156.365 22.28C156.685 22.856 157.125 23.312 157.685 23.648C158.245 23.984 158.885 24.152 159.605 24.152C160.213 24.152 160.765 24.048 161.261 23.84C161.773 23.616 162.213 23.296 162.581 22.88L163.997 24.32C163.469 24.928 162.821 25.4 162.053 25.736C161.301 26.072 160.485 26.24 159.605 26.24ZM166.139 26V8.864H168.299V26H166.139ZM176.739 26.24C175.603 26.24 174.579 25.984 173.667 25.472C172.755 24.944 172.035 24.232 171.507 23.336C170.979 22.44 170.715 21.424 170.715 20.288C170.715 19.168 170.971 18.16 171.483 17.264C172.011 16.368 172.715 15.664 173.595 15.152C174.491 14.624 175.491 14.36 176.595 14.36C177.651 14.36 178.579 14.6 179.379 15.08C180.195 15.56 180.827 16.224 181.275 17.072C181.739 17.92 181.971 18.88 181.971 19.952C181.971 20.112 181.963 20.288 181.947 20.48C181.931 20.656 181.899 20.864 181.851 21.104H172.227V19.304H180.699L179.907 20C179.907 19.232 179.771 18.584 179.499 18.056C179.227 17.512 178.843 17.096 178.347 16.808C177.851 16.504 177.251 16.352 176.547 16.352C175.811 16.352 175.163 16.512 174.603 16.832C174.043 17.152 173.611 17.6 173.307 18.176C173.003 18.752 172.851 19.432 172.851 20.216C172.851 21.016 173.011 21.72 173.331 22.328C173.651 22.92 174.107 23.384 174.699 23.72C175.291 24.04 175.971 24.2 176.739 24.2C177.379 24.2 177.963 24.088 178.491 23.864C179.035 23.64 179.499 23.304 179.883 22.856L181.275 24.272C180.731 24.912 180.059 25.4 179.259 25.736C178.475 26.072 177.635 26.24 176.739 26.24Z" fill="#353131"/>
</svg>
